<?xml version="1.0" encoding="UTF-8" standalone="no"?>
<!-- Created with Inkscape (http://www.inkscape.org/) -->

<svg
   xmlns:dc="http://purl.org/dc/elements/1.1/"
   xmlns:cc="http://creativecommons.org/ns#"
   xmlns:rdf="http://www.w3.org/1999/02/22-rdf-syntax-ns#"
   xmlns:svg="http://www.w3.org/2000/svg"
   xmlns="http://www.w3.org/2000/svg"
   xmlns:sodipodi="http://sodipodi.sourceforge.net/DTD/sodipodi-0.dtd"
   xmlns:inkscape="http://www.inkscape.org/namespaces/inkscape"
   version="1.1"
   id="svg2"
   xml:space="preserve"
   width="602.66669"
   height="558.66669"
   viewBox="0 0 602.66669 558.66669"
   sodipodi:docname="AinterB.svg"
   inkscape:version="0.92.0 r15299"><metadata
     id="metadata8"><rdf:RDF><cc:Work
         rdf:about=""><dc:format>image/svg+xml</dc:format><dc:type
           rdf:resource="http://purl.org/dc/dcmitype/StillImage" /><dc:title></dc:title></cc:Work></rdf:RDF></metadata><defs
     id="defs6" /><sodipodi:namedview
     pagecolor="#ffffff"
     bordercolor="#666666"
     borderopacity="1"
     objecttolerance="10"
     gridtolerance="10"
     guidetolerance="10"
     inkscape:pageopacity="0"
     inkscape:pageshadow="2"
     inkscape:window-width="1366"
     inkscape:window-height="705"
     id="namedview4"
     showgrid="false"
     inkscape:zoom="0.42243435"
     inkscape:cx="301.33334"
     inkscape:cy="279.33334"
     inkscape:window-x="-8"
     inkscape:window-y="-8"
     inkscape:window-maximized="1"
     inkscape:current-layer="g10" /><g
     id="g10"
     inkscape:groupmode="layer"
     inkscape:label="ink_ext_XXXXXX"
     transform="matrix(1.3333333,0,0,-1.3333333,0,558.66667)"><g
       id="g12"
       transform="scale(0.1)"
       inkscape:export-xdpi="96"
       inkscape:export-ydpi="96"><path
         d="m 2811.02,2884 c 0,-343.83 -147.86,-673.6 -411.1,-916.72 -263.2,-243.13 -620.19,-379.73 -992.46,-379.73 C 632.301,1587.55 3.91016,2167.98 3.91016,2884 c 0,715.97 628.39084,1296.4 1403.54984,1296.4 775.16,0 1403.56,-580.43 1403.56,-1296.4 z"
         style="fill:none;stroke:#000000;stroke-width:7.77487993;stroke-linecap:butt;stroke-linejoin:miter;stroke-miterlimit:4;stroke-dasharray:none;stroke-opacity:1"
         id="path14"
         inkscape:connector-curvature="0" /><path
         d="m 4514.61,2873.29 c 0,-343.86 -147.89,-673.59 -411.09,-916.71 -263.25,-243.13 -620.24,-379.73 -992.5,-379.73 -775.16,0 -1403.56,580.43 -1403.56,1296.44 0,715.98 628.4,1296.41 1403.56,1296.41 775.19,0 1403.59,-580.43 1403.59,-1296.41 z"
         style="fill:none;stroke:#000000;stroke-width:7.77487993;stroke-linecap:butt;stroke-linejoin:miter;stroke-miterlimit:4;stroke-dasharray:none;stroke-opacity:1"
         id="path16"
         inkscape:connector-curvature="0" /><path
         d="M 2253.91,2119.08 V 559"
         style="fill:none;stroke:#000000;stroke-width:19.83889961;stroke-linecap:butt;stroke-linejoin:miter;stroke-miterlimit:4;stroke-dasharray:none;stroke-opacity:1"
         id="path18"
         inkscape:connector-curvature="0" /><path
         d="m 2253.91,1920.68 79.33,-79.38 -79.33,277.78 -79.38,-277.78 z"
         style="fill:#000000;fill-opacity:1;fill-rule:evenodd;stroke:none"
         id="path20"
         inkscape:connector-curvature="0" /><path
         d="m 2253.91,1920.68 79.33,-79.38 -79.33,277.78 -79.38,-277.78 z"
         style="fill:none;stroke:#000000;stroke-width:21.16150093;stroke-linecap:butt;stroke-linejoin:miter;stroke-miterlimit:4;stroke-dasharray:none;stroke-opacity:1"
         id="path22"
         inkscape:connector-curvature="0" /><path
         d="M 878.199,1951.15 608.16,495.441"
         style="fill:none;stroke:#000000;stroke-width:23.00370026;stroke-linecap:butt;stroke-linejoin:miter;stroke-miterlimit:4;stroke-dasharray:none;stroke-opacity:1"
         id="path24"
         inkscape:connector-curvature="0" /><path
         d="M 836.25,1724.97 909.922,1617.71 878.199,1951.15 728.98,1651.26 Z"
         style="fill:#000000;fill-opacity:1;fill-rule:evenodd;stroke:none"
         id="path26"
         inkscape:connector-curvature="0" /><path
         d="m 836.254,1724.97 73.664,-107.26 -31.719,333.43 -149.211,-299.87 z"
         style="fill:none;stroke:#000000;stroke-width:24.53730011;stroke-linecap:butt;stroke-linejoin:miter;stroke-miterlimit:4;stroke-dasharray:none;stroke-opacity:1"
         id="path28"
         inkscape:connector-curvature="0" /><path
         d="M 3453.91,1781.18 3818.16,481.852"
         style="fill:none;stroke:#000000;stroke-width:19.10639954;stroke-linecap:butt;stroke-linejoin:miter;stroke-miterlimit:4;stroke-dasharray:none;stroke-opacity:1"
         id="path30"
         inkscape:connector-curvature="0" /><path
         d="m 3505.47,1597.24 94.22,-52.97 -145.78,236.91 -1.41,-278.16 z"
         style="fill:#000000;fill-opacity:1;fill-rule:evenodd;stroke:none"
         id="path32"
         inkscape:connector-curvature="0" /><path
         d="m 3505.47,1597.24 94.21,-52.97 -145.77,236.92 -1.41,-278.17 z"
         style="fill:none;stroke:#000000;stroke-width:20.38010025;stroke-linecap:butt;stroke-linejoin:miter;stroke-miterlimit:4;stroke-dasharray:none;stroke-opacity:1"
         id="path34"
         inkscape:connector-curvature="0" /><path
         d="M 1691.72,514.621 1879.38,112.43 h -43.29 l -63.12,132.351 H 1599.53 L 1536.72,112.43 h -44.84 l 190,402.191 z m -4.84,-85.312 -69.22,-145.629 h 137.5 z"
         style="fill:#000000;fill-opacity:1;fill-rule:nonzero;stroke:none"
         id="path36"
         inkscape:connector-curvature="0" /><path
         d="m 2153.28,79.6211 h -44.22 V 337.43 c 0,53.211 13.17,94.539 39.53,123.91 26.45,29.34 65.04,44.058 115.79,44.058 50.58,0 89.1,-15.039 115.46,-45 26.33,-30 39.54,-74.796 39.54,-134.367 V 79.6211 H 2375 V 327.121 c 0,47.699 -9.34,83.008 -27.97,105.938 -18.67,22.89 -46.21,34.371 -82.65,34.371 -36.49,0 -64.15,-11.481 -82.97,-34.371 -18.75,-22.93 -28.13,-58.239 -28.13,-105.938 z"
         style="fill:#000000;fill-opacity:1;fill-rule:nonzero;stroke:none"
         id="path38"
         inkscape:connector-curvature="0" /><path
         d="M 2685.63,514.621 H 2765 c 31.84,0 56.33,-3.832 73.44,-11.402 17.15,-7.5 30.7,-19.141 40.62,-34.848 9.96,-15.621 15,-33.043 15,-52.191 0,-17.809 -4.41,-34.102 -13.12,-48.75 -8.75,-14.68 -21.64,-26.602 -38.6,-35.621 20.9,-7.188 37.04,-15.59 48.29,-25.161 11.32,-9.488 20.15,-21.046 26.4,-34.679 6.33,-13.559 9.53,-28.25 9.53,-44.071 0,-32.296 -11.83,-59.648 -35.47,-82.027 -23.55,-22.301 -55.23,-33.441 -95,-33.441 H 2685.63 Z M 2725,475.25 V 346.5 h 22.97 c 27.89,0 48.44,2.578 61.56,7.809 13.09,5.191 23.48,13.363 31.1,24.531 7.69,11.211 11.56,23.672 11.56,37.34 0,18.398 -6.49,32.859 -19.38,43.289 -12.81,10.5 -33.24,15.781 -61.25,15.781 z m 0,-169.219 V 151.809 h 49.84 c 29.34,0 50.86,2.851 64.54,8.589 13.63,5.711 24.57,14.692 32.81,26.883 8.32,12.258 12.5,25.508 12.5,39.688 0,17.89 -5.86,33.472 -17.5,46.711 -11.68,13.32 -27.74,22.5 -48.13,27.5 -13.67,3.211 -37.42,4.851 -71.25,4.851 z"
         style="fill:#000000;fill-opacity:1;fill-rule:nonzero;stroke:none"
         id="path40"
         inkscape:connector-curvature="0" /><path
         d="M 585.391,412.199 773.051,10.0117 H 729.77 L 666.641,142.359 H 493.199 L 430.391,10.0117 h -44.84 l 190,402.1873 z m -4.84,-85.308 -69.223,-145.629 h 137.5 z"
         style="fill:#000000;fill-opacity:1;fill-rule:nonzero;stroke:none"
         id="path42"
         inkscape:connector-curvature="0" /><path
         d="m 3696.37,455.051 h 79.37 c 31.84,0 56.33,-3.832 73.44,-11.403 17.15,-7.5 30.7,-19.148 40.62,-34.847 9.97,-15.621 15,-33.051 15,-52.192 0,-17.808 -4.41,-34.097 -13.12,-48.75 -8.75,-14.679 -21.64,-26.597 -38.59,-35.621 20.89,-7.187 37.03,-15.59 48.28,-25.16 11.33,-9.488 20.15,-21.047 26.4,-34.68 6.33,-13.558 9.53,-28.25 9.53,-44.07 0,-32.297 -11.83,-59.648 -35.46,-82.0272 C 3878.28,64 3846.6,52.8594 3806.84,52.8594 h -110.47 z m 39.37,-39.371 V 286.93 h 22.97 c 27.89,0 48.44,2.57 61.56,7.808 13.09,5.192 23.48,13.364 31.1,24.532 7.69,11.21 11.56,23.671 11.56,37.339 0,18.403 -6.48,32.86 -19.38,43.289 -12.81,10.5 -33.24,15.782 -61.25,15.782 z m 0,-169.219 V 92.2383 h 49.85 c 29.33,0 50.86,2.8515 64.53,8.5897 13.63,5.711 24.57,14.692 32.81,26.883 8.32,12.258 12.5,25.508 12.5,39.687 0,17.891 -5.86,33.473 -17.5,46.711 -11.68,13.321 -27.73,22.5 -48.13,27.5 -13.67,3.211 -37.42,4.852 -71.25,4.852 z"
         style="fill:#000000;fill-opacity:1;fill-rule:nonzero;stroke:none"
         id="path44"
         inkscape:connector-curvature="0" /><path
         d="m 294.57,2539.43 c 0,36.83 4.84,65.39 14.532,85.62 9.769,20.2 23.597,35.51 41.41,45.94 17.769,10.39 37.726,15.62 59.84,15.62 22.269,0 42.5,-5.27 60.628,-15.78 18.079,-10.43 32.418,-26.13 42.969,-47.03 10.582,-20.94 15.93,-49.1 15.93,-84.37 0,-35.24 -5.231,-63.25 -15.617,-84.07 -10.434,-20.86 -24.813,-36.6 -43.133,-47.18 -18.238,-10.51 -38.508,-15.78 -60.777,-15.78 -22.114,0 -41.993,5.11 -59.692,15.31 -17.609,10.27 -31.359,25.66 -41.25,46.09 -9.922,20.39 -14.84,48.95 -14.84,85.63 z m 32.5,-0.63 c 0,-31.56 3.481,-55.51 10.469,-71.72 6.949,-16.17 17.231,-28.47 30.781,-36.87 13.629,-8.36 28.008,-12.5 43.129,-12.5 15.27,0 29.571,4.06 42.813,12.19 13.316,8.2 23.437,20.5 30.308,36.87 8.629,19.96 12.969,43.98 12.969,72.03 0,28.2 -3.867,51.29 -11.559,69.22 -7.621,18.01 -18.21,31.13 -31.718,39.38 -13.563,8.32 -27.852,12.5 -42.813,12.5 -15.32,0 -29.73,-4.18 -43.129,-12.5 -13.441,-8.25 -23.711,-20.51 -30.781,-36.72 -6.988,-16.18 -10.469,-40.12 -10.469,-71.88 z"
         style="fill:#000000;fill-opacity:1;fill-rule:nonzero;stroke:none"
         id="path46"
         inkscape:connector-curvature="0" /><path
         d="m 1118.44,3441.93 h 67.65 v -280.16 h -34.21 v 252.66 h -54.07 z"
         style="fill:#000000;fill-opacity:1;fill-rule:nonzero;stroke:none"
         id="path48"
         inkscape:connector-curvature="0" /><path
         d="m 1320.86,2282.71 h -33.13 c 0.9,27.69 12.27,50.39 34.07,68.12 21.83,17.78 48.79,26.72 80.78,26.72 31.76,0 57.42,-8.36 77.03,-25 19.57,-16.56 29.37,-36.17 29.37,-58.75 0,-15.94 -4.72,-30.9 -14.06,-44.84 -9.37,-13.87 -27.58,-32.7 -54.53,-56.41 l -85.78,-75.15 h 159.06 v -27.04 h -234.06 l 131.72,115.63 c 26.64,23.2 43.98,40.47 52.03,51.72 8.09,11.21 12.19,23.04 12.19,35.47 0,15.7 -7.27,29.25 -21.72,40.62 -14.49,11.33 -32.23,17.03 -53.13,17.03 -21.99,0 -40.35,-6.01 -55,-17.97 -14.61,-11.87 -22.89,-28.63 -24.84,-50.15 z"
         style="fill:#000000;fill-opacity:1;fill-rule:nonzero;stroke:none"
         id="path50"
         inkscape:connector-curvature="0" /><path
         d="m 2140.98,3636.22 h -35.16 c 6.33,23.09 18.59,40.86 36.72,53.28 18.09,12.47 39.53,18.75 64.22,18.75 18.01,0 34.76,-3.35 50.31,-10 15.51,-6.67 27.54,-15.7 36.09,-27.03 8.52,-11.25 12.82,-23.04 12.82,-35.31 0,-24.18 -14.81,-43.32 -44.38,-57.34 16.53,-5.43 30.16,-13.48 40.78,-24.07 14.96,-14.8 22.5,-31.44 22.5,-49.84 0,-15.86 -5.19,-31.01 -15.47,-45.47 -10.31,-14.37 -24.41,-25.54 -42.18,-33.44 -17.82,-7.77 -37.74,-11.71 -59.69,-11.71 -29.69,0 -54.49,6.95 -74.38,20.78 -19.8,13.94 -32.77,34.37 -38.9,61.25 h 33.75 c 5.9,-18.13 14.45,-31.29 25.62,-39.38 14.14,-10.31 32.27,-15.47 54.38,-15.47 24.96,0 45.04,6.1 60.15,18.28 15.2,12.15 22.82,26.45 22.82,42.82 0,10.9 -3.83,21.13 -11.41,30.62 -7.62,9.57 -17.77,16.76 -30.47,21.56 -12.73,4.89 -32.46,7.9 -59.22,9.07 v 25.62 c 15.82,0 30.2,2.23 43.13,6.72 13.01,4.57 22.42,10.35 28.28,17.34 5.82,6.96 8.75,14.58 8.75,22.82 0,12.15 -6.02,22.69 -17.97,31.56 -11.87,8.95 -26.99,13.44 -45.31,13.44 -14.81,0 -27.62,-3.48 -38.44,-10.32 -10.74,-6.79 -19.88,-18.32 -27.34,-34.53 z"
         style="fill:#000000;fill-opacity:1;fill-rule:nonzero;stroke:none"
         id="path52"
         inkscape:connector-curvature="0" /><path
         d="m 2455.35,2797.55 h 7.03 V 2602.4 h 41.72 v -26.88 h -41.72 v -65.16 h -34.37 v 65.16 h -164.85 z m -27.34,-195.15 v 116.71 L 2326.45,2602.4 Z"
         style="fill:#000000;fill-opacity:1;fill-rule:nonzero;stroke:none"
         id="path54"
         inkscape:connector-curvature="0" /><path
         d="m 3772.77,3699.08 v -26.72 h -122.81 l -17.19,-76.41 c 14.96,3.63 28.52,5.47 40.63,5.47 31.33,0 57.23,-8.56 77.65,-25.63 20.4,-17.11 30.63,-38.98 30.63,-65.62 0,-18.44 -5.27,-35.39 -15.78,-50.78 -10.43,-15.31 -24.61,-27.11 -42.5,-35.31 -17.93,-8.09 -38.63,-12.19 -62.03,-12.19 -27.93,0 -51.53,6.95 -70.78,20.78 -19.18,13.94 -30.67,31.95 -34.38,54.06 h 35.31 c 2.7,-10.86 7.19,-19.65 13.44,-26.4 6.33,-6.68 14.77,-12.11 25.31,-16.25 10.59,-4.07 21.72,-6.1 33.28,-6.1 22.58,0 42.04,6.95 58.29,20.94 16.21,13.94 24.37,31.41 24.37,52.34 0,18.95 -7.38,34.3 -22.03,46.1 -14.69,11.75 -34.3,17.65 -58.75,17.65 -20.31,0 -44.96,-5.04 -73.91,-15 l 31.88,139.07 z"
         style="fill:#000000;fill-opacity:1;fill-rule:nonzero;stroke:none"
         id="path56"
         inkscape:connector-curvature="0" /><path
         d="m 3978.36,2520.52 h 218.59 l -184.37,-287.19 -28.44,11.72 159.38,248.91 h -165.16 z"
         style="fill:#000000;fill-opacity:1;fill-rule:nonzero;stroke:none"
         id="path58"
         inkscape:connector-curvature="0" /><path
         d="m 3112.77,2206.11 28.28,-15 -92.96,-114.69 c 12.46,3.4 24.21,5.16 35.15,5.16 27.27,0 50.47,-8.09 69.53,-24.22 19.03,-16.06 28.6,-35.82 28.6,-59.22 0,-16.17 -4.65,-30.74 -13.91,-43.75 -9.18,-13.05 -22.26,-23.4 -39.22,-31.1 -16.87,-7.57 -35.11,-11.4 -54.69,-11.4 -18.86,0 -36.44,3.71 -52.65,11.09 -16.17,7.46 -28.87,17.97 -38.13,31.41 -9.18,13.4 -13.75,27.81 -13.75,43.12 0,11.45 2.86,23.48 8.6,36.1 5.7,12.69 15.93,27.89 30.62,45.62 z m -37.81,-149.07 c -20,0 -37.11,-5.82 -51.25,-17.34 -14.06,-11.48 -21.09,-25.39 -21.09,-41.72 0,-16.25 7.03,-30.19 21.09,-41.72 14.14,-11.48 31.25,-17.18 51.25,-17.18 19.96,0 37.07,5.7 51.25,17.18 14.14,11.53 21.25,25.47 21.25,41.72 0,16.33 -7.11,30.24 -21.25,41.72 -14.18,11.52 -31.29,17.34 -51.25,17.34 z"
         style="fill:#000000;fill-opacity:1;fill-rule:nonzero;stroke:none"
         id="path60"
         inkscape:connector-curvature="0" /></g></g></svg>